<?xml version="1.0" encoding="UTF-8"?>
<svg width="28px" height="28px" viewBox="0 0 28 28" version="1.1" xmlns="http://www.w3.org/2000/svg" xmlns:xlink="http://www.w3.org/1999/xlink">
    <!-- Generator: sketchtool 52.6 (67491) - http://www.bohemiancoding.com/sketch -->
    <title>A3938E0A-8E32-40B3-8587-693EF1264782</title>
    <desc>Created with sketchtool.</desc>
    <g id="Site" stroke="none" stroke-width="1" fill="none" fill-rule="evenodd">
        <g id="Home-V2" transform="translate(-166.000000, -1679.000000)">
            <g id="Chart-line#1" transform="translate(162.000000, 1675.000000)">
                <rect id="bound" x="0" y="0" width="36" height="36"></rect>
                <path d="M7.5,28.5 L30,28.5 C30.8284271,28.5 31.5,29.1715729 31.5,30 C31.5,30.8284271 30.8284271,31.5 30,31.5 L6,31.5 C5.17157288,31.5 4.5,30.8284271 4.5,30 L4.5,6 C4.5,5.17157288 5.17157288,4.5 6,4.5 C6.82842712,4.5 7.5,5.17157288 7.5,6 L7.5,28.5 Z" id="Path-95" fill="#241F20" fill-rule="nonzero"></path>
                <path d="M13.0943058,22.0259117 C12.5277104,22.6302801 11.5784567,22.6609012 10.9740883,22.0943058 C10.3697199,21.5277104 10.3390988,20.5784567 10.9056942,19.9740883 L16.5306942,13.9740883 C17.0786587,13.3895928 17.9892269,13.3389043 18.5986789,13.85897 L23.0382825,17.6474318 L28.8226759,10.3205336 C29.336006,9.67031539 30.2792483,9.55934572 30.9294664,10.0726759 C31.5796846,10.586006 31.6906543,11.5292483 31.1773241,12.1794664 L24.4273241,20.7294664 C23.9000959,21.3972889 22.9235561,21.4933372 22.2763211,20.94103 L17.7402441,17.0702442 L13.0943058,22.0259117 Z" id="Path-97" fill="#FF0000" fill-rule="nonzero" opacity="0.3"></path>
            </g>
        </g>
    </g>
</svg>