<?xml version="1.0" encoding="UTF-8"?>
<svg width="28px" height="26px" viewBox="0 0 28 26" version="1.1" xmlns="http://www.w3.org/2000/svg" xmlns:xlink="http://www.w3.org/1999/xlink">
    <!-- Generator: sketchtool 52.6 (67491) - http://www.bohemiancoding.com/sketch -->
    <title>7576BB05-CC26-4D77-967C-58ED5A36128C</title>
    <desc>Created with sketchtool.</desc>
    <g id="Site" stroke="none" stroke-width="1" fill="none" fill-rule="evenodd">
        <g id="Home-V2" transform="translate(-935.000000, -1441.000000)">
            <g id="Gihub" transform="translate(931.000000, 1437.000000)">
                <rect id="Rectangle-5" x="0" y="0" width="36" height="36"></rect>
                <path d="M24.8143398,26.1856602 L16.5,17.8713203 L16.5,6 C16.5,5.17157288 17.1715729,4.5 18,4.5 C18.8284271,4.5 19.5,5.17157288 19.5,6 L19.5,16.6286797 L26.9356602,24.0643398 L29.7928932,21.2071068 C30.1834175,20.8165825 30.8165825,20.8165825 31.2071068,21.2071068 C31.3946432,21.3946432 31.5,21.6489971 31.5,21.9142136 L31.5,29 C31.5,29.5522847 31.0522847,30 30.5,30 L23.4142136,30 C22.8619288,30 22.4142136,29.5522847 22.4142136,29 C22.4142136,28.7347835 22.5195704,28.4804296 22.7071068,28.2928932 L24.8143398,26.1856602 Z" id="Combined-Shape" fill="#241F20" fill-rule="nonzero"></path>
                <path d="M10.8671828,25.7171828 L13.4428932,28.2928932 C13.6304296,28.4804296 13.7357864,28.7347835 13.7357864,29 C13.7357864,29.5522847 13.2880712,30 12.7357864,30 L5.54339827,30 C4.99111352,30 4.54339827,29.5522847 4.54339827,29 L4.54339827,21.8076118 C4.54339827,21.5423954 4.64875511,21.2880414 4.83629149,21.1005051 C5.22681578,20.7099808 5.85998076,20.7099808 6.25050505,21.1005051 L8.73850951,23.5885095 L13.2810866,19.7447904 L15.2189134,22.0349493 L10.8671828,25.7171828 Z" id="Combined-Shape" fill="#FF0000" fill-rule="nonzero" opacity="0.3"></path>
            </g>
        </g>
    </g>
</svg>