<?xml version="1.0" encoding="UTF-8"?>
<svg width="234px" height="960px" viewBox="0 0 234 960" version="1.1" xmlns="http://www.w3.org/2000/svg" xmlns:xlink="http://www.w3.org/1999/xlink">
    <!-- Generator: sketchtool 52.6 (67491) - http://www.bohemiancoding.com/sketch -->
    <title>56AC1F1D-D1AD-42CB-966C-72110188AA73</title>
    <desc>Created with sketchtool.</desc>
    <defs>
        <polygon id="path-1" points="0.818755377 0.0973379376 1336.81876 0.0973379376 1336.81876 1053.09734 0.818755377 1053.09734"></polygon>
    </defs>
    <g id="Site" stroke="none" stroke-width="1" fill="none" fill-rule="evenodd">
        <g id="Home-V2">
            <g id="Group-7" transform="translate(-1047.000000, -465.000000)">
                <g id="Pngme-Graphic03-Black" transform="translate(827.675682, 851.238786) rotate(-52.000000) translate(-827.675682, -851.238786) translate(159.175682, 324.238786)">
                    <mask id="mask-2" fill="white">
                        <use xlink:href="#path-1"></use>
                    </mask>
                    <g id="Clip-2"></g>
                    <path d="M1086.52491,164.960912 L744.322976,164.960912 L744.322976,288.15527 L1086.52491,288.15527 C1160.93906,288.15527 1221.4834,348.69379 1221.4834,423.104346 C1221.4834,497.532896 1160.93906,558.080413 1086.52491,558.080413 L266.805688,557.657549 C124.46246,557.657549 8.65180202,673.475781 8.65180202,815.820477 C8.65180202,958.162174 124.46246,1073.96091 266.805688,1073.96091 L608.997122,1073.96091 L608.997122,950.786047 L266.805688,950.786047 C192.381041,950.786047 131.839699,890.24003 131.839699,815.820477 C131.839699,741.400924 192.381041,680.851907 266.805688,680.851907 L1086.52491,681.264275 C1228.85764,681.264275 1344.6518,565.45504 1344.6518,423.104346 C1344.6518,280.762649 1228.85764,164.960912 1086.52491,164.960912 Z" id="Fill-1" fill="#E60C66" mask="url(#mask-2)"></path>
                </g>
                <path d="M1157.82432,1115.50071 C1157.82432,1149.46582 1185.35777,1177 1219.32396,1177 C1253.29157,1177 1280.82432,1149.46582 1280.82432,1115.50071 C1280.82432,1081.53489 1253.29157,1054 1219.32396,1054 C1185.35777,1054 1157.82432,1081.53489 1157.82432,1115.50071 Z" id="Fill-4" fill="#CD0A5B" opacity="0.645484561"></path>
            </g>
        </g>
    </g>
</svg>