<?xml version="1.0" encoding="UTF-8"?>
<svg width="600px" height="413px" viewBox="0 0 600 413" version="1.1" xmlns="http://www.w3.org/2000/svg" xmlns:xlink="http://www.w3.org/1999/xlink">
    <!-- Generator: Sketch 52.6 (67491) - http://www.bohemiancoding.com/sketch -->
    <title>Group 3</title>
    <desc>Created with Sketch.</desc>
    <g id="Site" stroke="none" stroke-width="1" fill="none" fill-rule="evenodd">
        <g id="Home-V2" transform="translate(-757.000000, -2068.000000)">
            <g id="Group-3" transform="translate(757.000000, 2068.000000)">
                <path d="M290.006732,385.900452 L290.625,412.126697 L255,412.126697 C254.999486,409.181941 256.706232,406.538162 259.299447,405.466779 L278.998728,397.356112 L277.577424,386.622069 L290.006732,385.900452 Z" id="Path" fill="#1A2249"></path>
                <path d="M315,384.027149 L315,412.126697 L279.375,412.126697 C279.374486,409.325647 281.080892,406.810885 283.673589,405.791786 L303.333416,398.076923 L302.92132,385.385652 L315,384.027149 Z" id="Path" fill="#303D72"></path>
                <path d="M322.5,207.936652 C322.5,207.936652 314.429476,280.003312 310.924173,293.142295 L316.715872,384.272931 C316.715872,384.272931 308.085105,387.934855 302.111705,384.272931 C302.111705,384.272931 286.583895,306.889157 286.879158,296.547884 C287.174421,286.206611 293.692922,214.689239 293.692922,214.689239 L322.5,207.936652 Z" id="Path" fill="#303D72"></path>
                <path d="M281.743402,209.809955 C281.743402,209.809955 280.717588,282.110753 278.600944,295.446234 L292.5,385.369439 C292.5,385.369439 284.633019,389.751306 278.622616,386.683999 C278.622616,386.683999 256.73377,311.257469 256.061934,300.960083 C255.390098,290.662696 255,219.106815 255,219.106815 L281.743402,209.809955 Z" id="Path" fill="#303D72"></path>
                <polygon id="Path" fill="#0CBFD1" points="268.125 91.7918552 248.293746 150.800042 219.375 162.885073 222.101248 172.343891 262.914349 162.543814"></polygon>
                <path d="M298.497854,85.536031 L315.946155,90.9937978 C321.93003,92.8715723 326.116177,98.3398551 326.422406,104.678725 L331.875,217.303167 L253.125,215.26295 L266.938239,95.0889642 C267.411848,91.0462143 270.188978,87.6642097 274.026611,86.4567069 L280.94777,84.2986425 L298.497854,85.536031 Z" id="Path" fill="#60D6E6"></path>
                <polygon id="Path" fill="#50CAD3" points="260.062342 165.0616 255 207.936652 333.75 207.936652 330.743544 147.509558 313.942758 112.39819 316.182862 139.876968 281.15175 159.402705"></polygon>
                <path d="M148.125,384.027149 L148.125,412.126697 L189.375,412.126697 C189.373979,408.358277 186.69725,405.07552 182.886152,404.168733 L165.170331,399.957376 L164.261446,385.385652 L148.125,384.027149 Z" id="Path" fill="#1A2249"></path>
                <path d="M165.419242,224.79638 L172.5,293.515978 L167.142563,386.228949 C167.142563,386.228949 159.283066,393.919696 146.71508,386.228949 L145.510919,297.302866 L120,245.529229 L165.419242,224.79638 Z" id="Path" fill="#1A2249"></path>
                <path d="M146.11866,78.678733 L168.479782,87.926297 L176.25,210.017646 C176.25,210.017646 113.450402,229.115078 82.5,205.470988 L93.9523736,99.3553753 C94.6291221,93.0748094 98.7521964,87.7219951 104.600182,85.5317729 L125.446401,78.9211235 L146.11866,78.678733 Z" id="Path" fill="#F0F1F4"></path>
                <path d="M176.25,209.973561 L173.350665,164.448249 L115.001546,164.448249 L109.862475,120.830298 L91.6691472,119.891403 L82.5,205.397373 C113.450402,229.187639 176.25,209.973561 176.25,209.973561 Z" id="Path" fill="#E2E2E2"></path>
                <g id="Group-2" transform="translate(120.000000, 0.000000)">
                    <path d="M7.5,54.3257919 L7.5,80.921108 C7.5,80.921108 12.0825,84.7141745 20.145,84.2610529 C27.6075,83.8371649 28.7925,81.2061361 28.7925,81.2061361 L31.875,67.4151602 L7.5,54.3257919 Z" id="Path" fill="#FBAD83"></path>
                    <path d="M28.3348072,79.4324449 C25.3819239,78.2139506 22.627757,76.5556416 20.1645966,74.5130866 C16.4534451,71.6283641 13.6770372,67.6992202 12.1875,63.2239819 L28.3867995,66.2892355 L30.875,67.6723377 L28.3348072,79.4324449 Z" id="Path" fill="#E68D5C"></path>
                    <rect id="Rectangle" fill="#1A2249" x="34.8214286" y="38.6368778" width="13.8125" height="1"></rect>
                    <path d="M46.3583277,19.9729494 C46.3583277,19.9729494 48.75,25.4019676 48.75,30.1584881 C48.75,33.983319 47.074306,41.2126697 47.074306,41.2126697 L37.5,18.7330317 L46.3583277,19.9729494 Z" id="Path" fill="#1A2249"></path>
                    <path d="M43.5837832,66.4106474 C36.1784426,82.0810892 17.8066418,72.8257111 9.93939863,64.9118008 C2.07215547,56.9978905 3.15986144,26.8186131 5.33527337,21.1005132 C7.51068531,15.3824132 25.6962351,10.7434828 35.2918877,14.4306456 C44.8875404,18.1178083 50.9891238,50.7402057 43.5837832,66.4106474 Z" id="Path" fill="#FBAD83"></path>
                    <g id="Group" opacity="0.5" transform="translate(3.482143, 42.149321)" fill="#1A2249">
                        <path d="M8.36748922,0.464151439 C8.36748922,0.464151439 13.8393966,14.7349663 18.5614224,16.0684808 C22.5855388,17.2325431 28.1762392,11.5374786 35.4226185,11.2280443 C39.4541595,11.0585922 40.909375,11.4417013 42.5502047,12.5394563 C42.1787196,16.2845422 41.2035867,19.9461342 39.6620474,23.3843916 C32.2820259,38.7897988 13.9730388,29.6909571 6.13269397,21.9108949 C2.33873922,18.1534785 0.631088362,9.26092633 0.133642241,0.449416473 L8.36748922,0.464151439 Z" id="Path"></path>
                    </g>
                    <path d="M7.36060272,42.7751698 C10.0517066,42.5260604 12.5237102,41.2324439 14.2125025,39.1895234 C15.9012948,37.1466029 16.6627766,34.5286942 16.3231779,31.9332038 C15.8974556,28.6589301 14.9041035,27.5964174 15.7854234,24.5100711 C17.5331255,18.3301505 25.1961273,18.9083887 30.3645456,21.2068855 C35.532964,23.5053823 41.1719175,23.5053823 45.615861,20.2527925 C48.8980531,17.7817772 49.7202788,13.310184 47.5204083,9.89510096 C44.6673218,5.40652704 34.4275797,0 34.4275797,0 C34.4275797,0 35.6674026,2.70326352 35.2566179,4.10549112 C34.8458332,5.50771872 7.62201116,-2.39968847 2.06521456,9.3096348 C-3.49158204,21.0189581 3.92494891,43.0859729 3.92494891,43.0859729 L7.36060272,42.7751698 Z" id="Path" fill="#1A2249"></path>
                    <path d="M1.875,44.8014451 C1.875,48.8524397 7.77054549,52.4524887 11.3935064,52.4524887 C15.0164673,52.4524887 14.9999993,48.8524397 14.9999993,44.8014451 C14.9999993,40.7504504 12.0686946,37.4660633 8.41279766,37.4660633 C4.75690073,37.4660633 1.875,40.7429347 1.875,44.8014451 Z" id="Path" fill="#FBAD83"></path>
                    <path d="M3.53113711,43.2736025 C3.12765418,45.1445365 5.30329743,47.3415254 6.86184914,47.6598171 C8.42040085,47.9781088 5.07386596,45.4240121 5.47734889,43.5530781 C5.88083182,41.6821441 8.64192089,40.7893748 7.05963489,40.4477935 C5.47734889,40.1062122 3.93462004,41.4026685 3.53113711,43.2736025 Z" id="Path" fill="#E68D5C"></path>
                    <path d="M43.125,48.7058824 C40.0178571,48.7058824 37.5,45.345768 37.5,41.2126697 C37.5,37.0795713 40.0255102,33.719457 43.125,33.719457 C46.2244898,33.719457 48.75,37.0795713 48.75,41.2126697 C48.75,45.345768 46.2321429,48.7058824 43.125,48.7058824 Z M43.125,34.5082162 C40.4464286,34.5082162 38.2653061,37.5133889 38.2653061,41.2126697 C38.2653061,44.9119505 40.4464286,47.9171231 43.125,47.9171231 C45.8035714,47.9171231 47.9846939,44.9119505 47.9846939,41.2126697 C47.9846939,37.5133889 45.8112245,34.5161038 43.125,34.5161038 L43.125,34.5082162 Z" id="Shape" fill="#1A2249" fill-rule="nonzero"></path>
                    <path d="M30.0038291,48.7058824 C26.9022294,48.7058824 24.375,45.345768 24.375,41.2126697 C24.375,37.0795713 26.9022294,33.719457 30.0038291,33.719457 C33.1054289,33.719457 35.625,37.0559085 35.625,41.2126697 C35.625,45.3694308 33.1054289,48.7058824 30.0038291,48.7058824 Z M30.0038291,34.5082162 C27.3234343,34.5082162 25.1408271,37.5133889 25.1408271,41.2126697 C25.1408271,44.9119505 27.3234343,47.9171231 30.0038291,47.9171231 C32.684224,47.9171231 34.8591729,44.9435008 34.8591729,41.2126697 C34.8591729,37.4818385 32.684224,34.5161038 30.0038291,34.5161038 L30.0038291,34.5082162 Z" id="Shape" fill="#1A2249" fill-rule="nonzero"></path>
                    <rect id="Rectangle" fill="#1A2249" x="12.1875" y="38.6368778" width="12.1875" height="1"></rect>
                    <rect id="Rectangle" fill="#1A2249" x="34.8214286" y="38.6368778" width="2.4375" height="1"></rect>
                    <path d="M40.0446429,57.9553167 L27.8571429,57.9553167 C27.8571429,57.9553167 30.3263174,63.474806 34.4368091,63.625406 C38.5473009,63.776006 40.0446429,57.9553167 40.0446429,57.9553167 Z" id="Path" fill="#FFFFFF"></path>
                    <path d="M44.99568,59.9457014 L26.25,59.9457014 C26.25,59.9457014 26.5383951,55.4285889 29.7684199,53.6668315 C32.9984448,51.9050742 36.4952351,54.1177078 37.5983463,54.0509113 C38.7014575,53.9841148 41.715186,51.7046847 43.4383466,52.706632 C45.1615072,53.7085793 44.99568,59.9457014 44.99568,59.9457014 Z" id="Path" fill="#1A2249"></path>
                </g>
                <path d="M169.410785,88.0452489 C169.410785,88.0452489 208.743663,105.446425 214.570483,111.914118 C220.397302,118.381812 200.176983,167.388157 200.176983,167.388157 C200.176983,167.388157 195.376688,170.108695 190.923492,167.388157 L188.353487,165.686904 L198.352871,121.212344 C198.352871,121.212344 170.134522,116.812553 161.789394,111.45214 C153.444266,106.091727 169.410785,88.0452489 169.410785,88.0452489 Z" id="Path" fill="#F0F1F4"></path>
                <rect id="Rectangle" fill="#303D72" x="-9.09494702e-13" y="412.126697" width="582.721448" height="1"></rect>
                <path d="M298.125,85.4481019 C298.125,85.4481019 293.616304,93.7975489 286.697429,93.6635629 C279.778554,93.5295768 281.419969,84.2986425 281.419969,84.2986425 L298.125,85.4481019 Z" id="Path" fill="#FFFFFF"></path>
                <path d="M268.815562,41.2126697 C268.815562,41.2126697 265.121153,71.7646318 266.598916,77.7449837 C268.07668,83.7253356 282.854319,82.5005353 290.191417,81.8956957 C297.528515,81.290856 301.451978,82.3039624 304.666115,80.4743225 C307.880251,78.6446826 301.983973,59.5241896 301.983973,59.5241896 L268.815562,41.2126697 Z" id="Path" fill="#EDB607"></path>
                <path d="M274.685067,80.5520362 C270.026508,80.5520362 266.25,76.7778574 266.25,72.1221719 C266.25,67.4664865 270.026508,63.6923077 274.685067,63.6923077 C274.87467,63.6923077 275.028374,63.8459169 275.028374,64.0354035 C275.028374,64.2248901 274.87467,64.3784993 274.685067,64.3784993 C270.613483,64.4002607 267.25528,67.5715663 267.003148,71.6328875 C266.751016,75.6942088 269.691218,79.2560451 273.728884,79.7806179 C277.76655,80.3051908 281.520273,77.6130281 282.315557,73.6222731 C283.110841,69.6315181 280.675595,65.7075285 276.744912,64.6461141 C276.555308,64.5968476 276.441567,64.4032999 276.490864,64.2138133 C276.540161,64.0243267 276.733828,63.9106559 276.923432,63.9599224 C280.991481,65.0779767 283.608103,69.0269072 283.050268,73.2063648 C282.492432,77.3858224 278.931587,80.5112577 274.712531,80.5245885 L274.685067,80.5520362 Z" id="Path" fill="#FFFFFF"></path>
                <path d="M279.375,71.5810766 L280.755368,83.4286518 C280.755368,83.4286518 282.372987,86.1760201 290.935583,86.1688091 C293.421079,86.2182625 295.883493,85.6823191 298.125,84.6040351 L298.125,63.6923077 L279.375,71.5810766 Z" id="Path" fill="#FBAD83"></path>
                <path d="M279.375,72.5638969 L280.314873,80.5107458 C281.864,80.6227041 283.421387,80.5066702 284.935918,80.1664526 C286.929589,79.7167635 292.640032,73.8918849 296.25,65.5656109 L279.375,72.5638969 Z" id="Path" fill="#E68D5C"></path>
                <path d="M268.815949,34.3708323 C268.815949,34.3708323 266.822498,54.5326886 269.607572,64.2952717 C272.392646,74.0578547 281.12209,78.2000002 288.757656,76.3923855 C291.636285,75.7264221 301.92019,63.9513126 303.222769,49.3733025 C304.525349,34.7952925 303.280342,30.4189621 300.955849,27.337967 C298.631355,24.2569719 277.451838,20.4221942 273.608867,23.7886021 C269.765897,27.1550101 268.815949,34.3708323 268.815949,34.3708323 Z" id="Path" fill="#FBAD83"></path>
                <path d="M275.625,33.4147919 C275.625,33.4147919 269.381622,42.8046325 267.799967,43.0773358 C266.218311,43.3500392 266.044884,37.1147134 266.412549,31.5058682 C267.036887,22.6614344 272.829354,18.7330317 272.829354,18.7330317 L275.625,33.4147919 Z" id="Path" fill="#F9C200"></path>
                <path d="M268.125,25.3034023 C268.125,25.3034023 270.148528,36.3343486 274.398689,42.9350766 C278.64885,49.5358045 294.633969,47.1348641 297.469918,47.3355619 C300.305866,47.5362597 297.063708,69.7319508 295.04018,77.1280368 C293.016652,84.5241227 307.587558,82.3313133 312.243929,81.3278243 C316.9003,80.3243352 319.330038,41.3443606 313.259454,26.2399921 C307.18887,11.1356236 282.094114,11.7302838 275.218632,15.0306477 C271.176088,16.9675764 268.476154,20.8775278 268.125,25.3034023 Z" id="Path" fill="#F9C200"></path>
                <path d="M294.570709,77.182816 C292.50333,84.5226557 307.389995,82.3207038 312.147272,81.3298254 C315.359779,80.6619 317.527068,62.906828 316.697042,46.8325792 L298.198228,51.647514 C298.31351,58.3120884 296.100108,71.7660144 294.570709,77.182816 Z" id="Path" fill="#EDB607"></path>
                <path d="M303.75,59.8292668 C303.75,62.8720907 300.379215,65.5656109 298.304886,65.5656109 C296.230557,65.5656109 296.250003,62.8643284 296.250003,59.8292668 C296.250003,56.7942051 297.928914,54.3257919 299.996761,54.3257919 C302.064607,54.3257919 303.75,56.7864428 303.75,59.8292668 Z" id="Path" fill="#FBAD83"></path>
                <path d="M301.819962,58.5393644 C301.555831,56.9767535 299.499888,55.9919831 298.379114,56.236141 C297.25834,56.480299 300.192341,57.3755448 300.456473,58.9381557 C300.720604,60.5007666 299.157231,62.0308231 300.263728,61.7948038 C301.370225,61.5587844 302.084094,60.0694209 301.819962,58.5393644 Z" id="Path" fill="#E68D5C"></path>
                <path d="M286.177708,54.3257919 C286.045094,54.3253491 285.91537,54.2758287 285.803974,54.1831236 L281.471419,50.5629176 L278.370805,51.6061789 C278.000035,51.731756 277.620451,51.4463158 277.522981,50.9686303 C277.42551,50.4909448 277.647063,50.0019039 278.017833,49.8763268 L281.416051,48.734981 C281.605038,48.6712101 281.806142,48.7133129 281.969732,48.8508989 L286.558364,52.6851073 C286.815835,52.8993713 286.93325,53.3062994 286.846936,53.685216 C286.760622,54.0641326 286.49114,54.3247725 286.184629,54.3257919 L286.177708,54.3257919 Z" id="Path" fill="#F76A00"></path>
                <path d="M266.962229,52.4521618 C266.651528,52.4625305 266.373059,52.2252754 266.281084,51.8718268 C266.189109,51.5183782 266.306144,51.1352686 266.567357,50.9347262 L269.276036,48.8400052 C269.439781,48.7127547 269.641075,48.6738147 269.830241,48.7327951 L273.231677,49.7884025 C273.602798,49.9045462 273.82456,50.3568502 273.726998,50.7986518 C273.629435,51.2404534 273.249492,51.5044512 272.878371,51.3883075 L269.774821,50.4234164 L267.322462,52.311964 C267.215666,52.3976502 267.090919,52.4461998 266.962229,52.4521618 Z" id="Path" fill="#F76A00"></path>
                <path d="M299.008014,80.5513667 C294.378203,80.5513667 290.625,76.7773378 290.625,72.1218372 C290.625,67.4663366 294.378203,63.6923077 299.008014,63.6923077 C299.196447,63.6923077 299.349203,63.8459108 299.349203,64.0353899 C299.349203,64.2248689 299.196447,64.3784721 299.008014,64.3784721 C294.961556,64.4002326 291.624076,67.5714122 291.3735,71.6325722 C291.122924,75.6937322 294.044982,79.255427 298.057732,79.7799791 C302.070481,80.3045311 305.80104,77.6124753 306.591417,73.6218788 C307.381793,69.6312822 304.961575,65.7074485 301.055148,64.6460762 C300.866714,64.5968116 300.753675,64.4032717 300.802668,64.2137926 C300.851661,64.0243136 301.044133,63.9106472 301.232566,63.9599118 C305.333514,65.0371579 307.990448,69.0219496 307.424119,73.2458214 C306.85779,77.4696932 303.246251,80.6046662 299.008014,80.5513667 Z" id="Path" fill="#FFFFFF"></path>
                <path d="M324.154664,99.4281279 C324.154664,99.4281279 344.311065,139.852215 344.993959,153.663173 C345.676854,167.474132 288.232949,172.343891 288.232949,172.343891 C288.232949,172.343891 284.341185,167.815232 285.097509,163.264801 L327.436964,147.603189 C327.436964,147.603189 311.759763,119.647429 309.887311,108.528991 C308.014858,97.4105523 324.154664,99.4281279 324.154664,99.4281279 Z" id="Path" fill="#60D6E6"></path>
                <polygon id="Path" fill="#27345E" points="311.25 286.615385 309.888187 293.457781 310.380758 301.444175 287.932578 307.221719 286.875 298.889968 287.512444 286.615385"></polygon>
                <polygon id="Path" fill="#27345E" points="278.910714 286.615385 278.054688 295.731303 279.375 304.21904 257.285156 310.968326 255.428013 301.246141 255 286.615385"></polygon>
                <path d="M506.63142,295.959805 C506.63142,295.959805 518.429565,258.08834 497.86605,197.753247 C477.302535,137.418155 451.875,123.638009 451.875,123.638009 C451.875,123.638009 474.798144,174.457362 484.395898,214.229029 C493.993653,254.000696 494.102225,295.9819 494.102225,295.9819 L506.63142,295.959805 Z" id="Path" fill="#00C99C"></path>
                <path d="M406.875,384.027149 L404.20512,412.126697 L365.625,412.126697 C365.625204,407.979827 368.339887,404.315039 372.324887,403.081932 L391.34508,397.190322 L393.504013,384.027149 L406.875,384.027149 Z" id="Path" fill="#0CBFD1"></path>
                <path d="M459.203435,380.280543 L465,410.253394 L423.75,410.253394 C423.740132,406.154896 426.52339,402.530287 430.610044,401.319662 L447.834978,396.153166 L446.209843,382.052938 L459.203435,380.280543 Z" id="Path" fill="#0CBFD1"></path>
                <path d="M394.217953,252.376507 L390,293.589847 L394.217953,383.936012 C394.217953,383.936012 402.021538,386.913097 406.358516,385.537378 L410.695494,384.161659 L413.544658,297.120132 L429.375,251.022624 L394.217953,252.376507 Z" id="Path" fill="#60D6E6"></path>
                <path d="M418.125,255.5543 L422.441214,297.099829 L445.092054,385.467557 C445.092054,385.467557 453.338178,386.861948 457.290375,384.6456 L461.25,382.443929 L446.191537,295.896249 L452.223837,247.276018 L418.125,255.5543 Z" id="Path" fill="#60D6E6"></path>
                <path d="M429.61087,86.1719457 L457.148257,96.831894 L459.375,196.696833 L391.875,191.684735 L398.844705,100.757298 C399.256425,95.5545625 402.5204,91.0040363 407.328596,88.9293387 L412.041868,86.8964082 L429.61087,86.1719457 Z" id="Path" fill="#F9C200"></path>
                <polygon id="Path" fill="#EDB607" points="391.875 183.187701 459.375 194.823529 457.652985 118.443252 446.84586 112.39819 438.443617 163.359896 393.700929 166.210235"></polygon>
                <path d="M398.638893,97.4117647 L385.642978,149.750997 L350.625,164.825105 C350.625,164.825105 351.581221,170.495249 354.493349,172.343891 C354.493349,172.343891 392.705975,160.075628 398.61716,156.685232 C404.528346,153.294837 398.638893,97.4117647 398.638893,97.4117647 Z" id="Path" fill="#F89900"></path>
                <polygon id="Path" fill="#1A2249" points="414.375 77.168112 393.75 80.5520362 393.75 46.8325792"></polygon>
                <path d="M429.375,59.9457014 L429.375,84.8817979 C429.375,84.8817979 425.50023,88.422851 418.675781,88.0120889 C413.663603,87.7004762 411.434283,85.5191874 411.434283,85.5191874 L408.75,72.2048275 L429.375,59.9457014 Z" id="Path" fill="#A55B3A"></path>
                <path d="M429.375,64.4147698 C429.185364,64.875084 428.962364,65.3213988 428.707721,65.7502677 C425.181756,71.5324514 418.091912,80.0303962 410.577436,82.4253394 L408.75,72.8754102 L429.375,59.9457014 L429.375,64.4147698 Z" id="Path" fill="#8E4A2F"></path>
                <path d="M393.137444,71.5277491 C400.201681,86.5002177 418.001794,74.486735 425.506628,66.9043337 C433.011461,59.3219323 431.719043,33.704512 429.640895,28.2377855 C427.562746,22.7710591 410.20323,18.3399777 401.053501,21.8685684 C391.903773,25.3971591 386.073208,56.547883 393.137444,71.5277491 Z" id="Path" fill="#A55B3A"></path>
                <path d="M418.285805,84.2986425 L436.271809,78.214486 C436.271809,78.214486 438.908578,36.9070405 433.156298,26.5580817 C427.404017,16.2091229 412.202087,12.7250963 402.39154,16.4153655 C388.125,21.7850388 388.338593,40.7225285 388.125,42.4019325 C391.434615,41.7969272 394.824444,41.7744929 398.141775,42.3356403 C401.82093,43.0077494 405.580829,43.1170278 409.292803,42.6597358 L416.289816,41.8200338 L418.285805,84.2986425 Z" id="Path" fill="#1A2249"></path>
                <path d="M427.5,56.0628062 C427.5,59.1092621 424.127338,61.8190045 422.056991,61.8190045 C419.986644,61.8190045 420.000001,59.1092621 420.000001,56.0628062 C420.000001,53.0163503 421.676314,50.5791855 423.746661,50.5791855 C425.817008,50.5791855 427.5,52.9842823 427.5,56.0628062 Z" id="Path" fill="#A55B3A"></path>
                <ellipse id="Oval" fill="#FFFFFF" cx="421.875" cy="63.6923077" rx="3.75" ry="3.74660633"></ellipse>
                <path d="M390.945128,59.9457014 C387.323134,59.9457014 384.375,56.7443101 384.375,52.8019855 L384.375,52.4524887 L384.757875,52.4524887 L397.5,52.4524887 L397.499941,52.8299453 C397.515256,56.7443101 394.567121,59.9457014 390.945128,59.9457014 Z M385.156064,53.1235227 C385.316871,56.5416019 387.851501,59.2467076 390.945128,59.2467076 C394.038754,59.2467076 396.588699,56.5276221 396.741849,53.1235227 L385.156064,53.1235227 Z" id="Shape" fill="#1A2249" fill-rule="nonzero"></path>
                <path d="M407.816327,59.9457014 C404.196429,59.9457014 401.25,56.7443101 401.25,52.8019855 L401.25,52.4524887 L401.632653,52.4524887 L414.375,52.4524887 L414.375,52.8019855 C414.375,56.7443101 411.436224,59.9457014 407.816327,59.9457014 Z M402.030612,53.1235227 C402.191327,56.5416019 404.72449,59.2467076 407.816327,59.2467076 C410.908163,59.2467076 413.456633,56.5276221 413.609694,53.1235227 L402.030612,53.1235227 Z" id="Shape" fill="#1A2249" fill-rule="nonzero"></path>
                <rect id="Rectangle" fill="#1A2249" x="397.5" y="52.4524887" width="24.2128026" height="1"></rect>
                <path d="M440.625,109.55155 L469.457427,135.136218 L484.243287,188.498526 C484.243287,188.498526 484.908651,190.377171 490.401598,188.001452 L495,186.013158 C495,186.013158 490.061523,137.833573 483.171312,124.266389 C476.281101,110.699205 457.114334,96.7767351 457.114334,96.7767351 L440.625,109.55155 Z" id="Path" fill="#F9C200"></path>
                <polygon id="Path" fill="#50CAD3" points="448.125 286.615385 446.832189 296.886703 424.973288 305.348416 423.086081 298.073804 421.875 286.615385"></polygon>
                <polygon id="Path" fill="#50CAD3" points="416.25 286.615385 412.717451 297.729101 412.480511 305.401592 390.890317 314.714932 390 294.075173 390.703638 286.615385"></polygon>
                <path d="M89.5862069,204.190045 C89.5862069,204.190045 85.3596059,242.5386 87.1921182,269.686014 C89.0246305,296.833428 91.0788177,300.569579 91.0788177,300.569579 L82.5,386.756952 C82.5,386.756952 90.044335,390.493103 95.1871921,389.4695 L100.359606,388.453208 L118.536946,299.545976 L135,209.278814 L89.5862069,204.190045 Z" id="Path" fill="#303D72"></path>
                <path d="M117.022861,207.300461 L89.1353894,204.190045 C89.1353894,204.190045 84.8633932,242.757731 86.7155874,270.06027 C88.5677815,297.36281 90.6440314,301.12031 90.6440314,301.12031 L90.2183255,305.348416 L118.016174,301.730628 L118.352258,300.090858 L133.125,219.492115 L117.022861,207.300461 Z" id="Path" fill="#27345E"></path>
                <path d="M90,220.997345 C90,220.997345 92.4933862,238.688264 93.4893078,241.715393 C94.4852293,244.742522 97.7882496,247.276018 101.800595,247.276018 C105.812941,247.276018 106.622575,236.996847 105.12511,229.926287 C103.627646,222.855727 104.458774,220.997345 104.458774,220.997345 C104.458774,220.997345 107.618496,225.715892 109.61034,227.058862 C111.602183,228.401833 114.375,227.145974 114.375,227.145974 C114.375,227.145974 109.273589,218.638072 106.113867,216.257021 C102.954145,213.87597 98.3112875,213.556561 98.3112875,213.556561 L90,220.997345 Z" id="Path" fill="#FBAD83"></path>
                <path d="M96.8426001,91.7918552 C96.8426001,91.7918552 62.0347509,147.440701 58.3989869,156.536722 C54.763223,165.632744 88.5133954,223.941331 88.5133954,223.941331 C88.5133954,223.941331 93.1480763,227.35785 98.5686699,220.53216 C101.506661,216.858484 102.035499,214.279563 102.035499,214.279563 L77.9439725,158.887875 C77.9439725,158.887875 111.576625,129.704192 112.465368,114.245363 C113.35411,98.7865345 96.8426001,91.7918552 96.8426001,91.7918552 Z" id="Path" fill="#F0F1F4"></path>
                <path d="M99.2852871,385.394195 L97.0424641,399.109719 L112.144139,403.946957 C115.700215,405.070908 118.120691,408.381278 118.125,412.126697 L80.625,412.126697 L84.1537081,384.027149 L99.2852871,385.394195 Z" id="Path" fill="#303D72"></path>
                <path d="M523.136896,295.9819 C523.136896,295.9819 523.96472,270.200533 523.136896,232.215789 C522.309071,194.231046 564.850441,159.624349 600,176.924041 C600,176.924041 577.436298,177.201889 561.377975,191.130847 C545.319652,205.059805 536.220912,213.227073 534.916906,237.078129 C533.6129,260.929184 528.81445,295.9819 528.81445,295.9819 L523.136896,295.9819 Z" id="Path" fill="#00B98F"></path>
                <path d="M508.212775,295.901328 C508.212775,295.901328 505.444395,220.397181 496.456243,190.929468 C487.468091,161.461756 499.515267,95.5384615 499.515267,95.5384615 C499.515267,95.5384615 499.943966,146.482518 507.260918,171.56267 C514.577869,196.642821 527.097341,229.040457 524.699532,258.405623 C522.301722,287.770788 516.132813,295.9819 516.132813,295.9819 L508.212775,295.901328 Z" id="Path" fill="#00B98F"></path>
                <path d="M513.199279,197.222622 L495,191.076923 C495.078048,191.359901 495.156095,191.642879 495.241238,191.918601 C504.025139,221.116113 506.721329,295.909342 506.721329,295.909342 L514.469326,295.9819 C514.469326,295.9819 520.507371,287.848101 522.834608,258.759426 C524.452322,238.530136 519.045753,216.900468 513.199279,197.222622 Z" id="Path" fill="#068E6A"></path>
                <path d="M536.60206,194.823529 C528.108638,205.348974 522.844904,218.551494 523.136523,232.19288 C523.953058,270.227842 523.136523,295.9819 523.136523,295.9819 L528.786654,295.9819 C528.786654,295.9819 533.561925,260.916591 534.859633,237.056966 C535.792816,219.911976 540.735768,210.864043 549.375,201.94777 L536.60206,194.823529 Z" id="Path" fill="#068E6A"></path>
                <path d="M513.045941,295.9819 C513.045941,295.9819 519.381945,259.832325 512.390238,208.663062 C505.398531,157.493799 571.875,112.39819 571.875,112.39819 C571.875,112.39819 536.990141,152.976929 530.6173,185.888683 C524.244459,218.800438 529.327997,259.496118 525.334841,279.938973 C522.874114,292.532123 522.660458,295.945356 522.660458,295.945356 L513.045941,295.9819 Z" id="Path" fill="#00C99C"></path>
                <path d="M527.509259,295.974598 C527.509259,295.974598 530.998664,273.395818 530.56706,239.929275 C530.135457,206.462733 551.437654,178.43642 530.56706,128.860955 C509.696467,79.2854892 495,80.5853026 495,80.5853026 C495,80.5853026 519.703818,78.3946059 537.033799,109.568219 C554.363779,140.741833 557.955599,180.809675 546.543708,219.263703 C535.131817,257.717732 535.819456,295.9819 535.819456,295.9819 L527.509259,295.974598 Z" id="Path" fill="#00C99C"></path>
                <path d="M508.512569,295.945156 C508.512569,295.945156 517.828034,266.057389 505.448367,217.106708 L485.625,211.683258 C485.856261,212.594515 486.082703,213.503323 486.304328,214.409681 C495.879961,254.093463 495.995591,295.9819 495.995591,295.9819 L508.512569,295.945156 Z" id="Path" fill="#00B98F"></path>
                <path d="M515.060755,225.966589 C518.985264,267.776749 513.75,295.9819 513.75,295.9819 L523.902534,295.9819 C523.902534,295.9819 524.127456,292.589728 526.717942,280.074282 C529.440279,266.934154 528.17606,245.368072 528.75,222.923077 L515.060755,225.966589 Z" id="Path" fill="#00B98F"></path>
                <path d="M531.549233,243.529412 C531.748231,274.9607 528.75,295.9819 528.75,295.9819 L536.338443,295.9819 C536.384685,280.408994 537.609298,264.866346 540,249.509828 L531.549233,243.529412 Z" id="Path" fill="#00B98F"></path>
                <path d="M492.930397,295.9819 C481.715114,309.161607 474.375,331.108335 474.375,355.965247 C474.375,378.575701 480.433158,398.720886 489.948934,412.126697 L545.051066,412.126697 C554.574168,398.742767 560.625,378.575701 560.625,355.965247 C560.625,331.108335 553.299537,309.161607 542.069603,295.9819 L492.930397,295.9819 Z" id="Path" fill="#FF0069"></path>
                <path d="M526.875,295.9819 L493.348106,295.9819 C481.88035,309.161607 474.375,331.108335 474.375,355.965247 C474.375,378.575701 480.569536,398.720886 490.299526,412.126697 L526.875,412.126697 L526.875,295.9819 Z" id="Path" fill="#E10460"></path>
                <path d="M490.503896,185.457014 C490.503896,185.457014 492.18263,192.646782 490.503896,199.164742 C488.825162,205.682703 483.484351,212.743827 480.871483,211.550297 C478.258615,210.356767 482.353914,196.177344 482.353914,196.177344 L482.963132,188.108509 L490.503896,185.457014 Z" id="Path" fill="#A55B3A"></path>
                <polygon id="Path" fill="#FE3B8B" points="483.75 286.615385 99.375 286.615385 99.375 170.470588 204.236415 170.470588 483.75 170.470588"></polygon>
                <polygon id="Path" fill="#FF0A6F" points="248.540561 170.470588 322.5 286.615385 99.375 286.615385 99.375 170.470588"></polygon>
                <path d="M352.020465,166.723982 C349.385808,167.246642 346.789562,167.932799 344.248216,168.778095 C340.712604,170.01639 333.519463,178.808283 333.755678,180.272385 C333.991894,181.736487 336.468346,184.642838 340.613546,183.18602 C344.758746,181.729202 351.814729,171.844696 351.814729,171.844696 L354.375,171.844696 C354.375,171.844696 353.079625,170.417014 352.020465,166.723982 Z" id="Path" fill="#A55B3A"></path>
                <path d="M199.749654,165.940873 C199.749654,165.940873 201.066376,177.419558 200.469978,181.885836 C199.873581,186.352114 195.822724,189.777433 191.601469,189.123316 C187.380213,188.4692 189.208133,172.074092 189.208133,172.074092 L183.786337,172.074092 C183.570471,170.6435 184.329805,169.236616 185.707202,168.515137 C187.319633,167.514853 188.736016,166.276204 189.897476,164.850679 L199.749654,165.940873 Z" id="Path" fill="#FBAD83"></path>
                <path d="M220.878806,162.977376 C217.927667,164.280783 215.071495,165.769079 212.329277,167.43237 C209.103773,169.545731 206.414557,178.139084 206.259111,180.031536 C206.103665,181.923988 207.953472,184.766348 210.564965,185.421711 C213.176457,186.077073 217.637757,177.410084 218.251769,175.848996 C218.73812,174.273045 219.073685,172.6588 219.254395,171.02582 L221.710442,171.02582 L223.125,170.289457 L220.878806,162.977376 Z" id="Path" fill="#FBAD83"></path>
                <path d="M289.303463,162.977376 C289.303463,162.977376 280.348317,164.055247 276.578932,167.230988 C272.809547,170.406729 270.806823,180.252251 272.45926,182.487568 C274.111698,184.722885 278.817719,183.044588 281.650469,181.814803 C284.483219,180.585017 286.478328,170.884176 286.478328,170.884176 L294.375,169.27822 L289.303463,162.977376 Z" id="Path" fill="#FBAD83"></path>
                <path d="M125.625,206.485958 C125.625,211.892216 129.854213,216.274858 135.071511,216.274858 C140.289028,216.274858 144.518132,211.892216 144.518132,206.485958 C144.518132,201.079587 140.289028,196.696833 135.071511,196.696833 C129.854213,196.696833 125.625,201.079587 125.625,206.485958 Z" id="Fill-4" fill="#FFFFFF"></path>
                <path d="M440.625,258.938447 C440.625,264.344705 444.854213,268.727347 450.071511,268.727347 C455.289028,268.727347 459.518132,264.344705 459.518132,258.938447 C459.518132,253.532076 455.289028,249.149321 450.071511,249.149321 C444.854213,249.149321 440.625,253.532076 440.625,258.938447 Z" id="Fill-4-Copy" fill="#FFFFFF"></path>
                <path d="" id="Path-2" stroke="#979797" stroke-width="1.87507913"></path>
                <polyline id="Path-3" stroke="#FFFFFF" stroke-width="1.87507913" points="153.148631 206.063348 270.553436 206.698149 305.625 260.859295 435.774536 260.859295"></polyline>
            </g>
        </g>
    </g>
</svg>