<?xml version="1.0" encoding="UTF-8"?>
<svg width="35px" height="26px" viewBox="0 0 35 26" version="1.1" xmlns="http://www.w3.org/2000/svg" xmlns:xlink="http://www.w3.org/1999/xlink">
    <!-- Generator: sketchtool 52.6 (67491) - http://www.bohemiancoding.com/sketch -->
    <title>6A64A3AC-6D52-4F20-8C47-48A8C98E1511</title>
    <desc>Created with sketchtool.</desc>
    <g id="Site" stroke="none" stroke-width="1" fill="none" fill-rule="evenodd">
        <g id="Home-V2" transform="translate(-935.000000, -1255.000000)">
            <g id="Money" transform="translate(934.000000, 1250.000000)">
                <rect id="bound" x="1" y="0" width="36" height="36"></rect>
                <path d="M4.5,9 L32,9 C33.1045695,9 34,9.8954305 34,11 L34,25 C34,26.1045695 33.1045695,27 32,27 L4.5,27 C3.3954305,27 2.5,26.1045695 2.5,25 L2.5,11 C2.5,9.8954305 3.3954305,9 4.5,9 Z M18.25,24 C21.5637085,24 24.25,21.3137085 24.25,18 C24.25,14.6862915 21.5637085,12 18.25,12 C14.9362915,12 12.25,14.6862915 12.25,18 C12.25,21.3137085 14.9362915,24 18.25,24 Z" id="Combined-Shape-Copy" fill="#FF0000" opacity="0.3" transform="translate(18.250000, 18.000000) rotate(-345.000000) translate(-18.250000, -18.000000) "></path>
                <path d="M4.5,9 L32,9 C33.1045695,9 34,9.8954305 34,11 L34,25 C34,26.1045695 33.1045695,27 32,27 L4.5,27 C3.3954305,27 2.5,26.1045695 2.5,25 L2.5,11 C2.5,9.8954305 3.3954305,9 4.5,9 Z M18.25,24 C21.5637085,24 24.25,21.3137085 24.25,18 C24.25,14.6862915 21.5637085,12 18.25,12 C14.9362915,12 12.25,14.6862915 12.25,18 C12.25,21.3137085 14.9362915,24 18.25,24 Z M18.25,21 C19.9068542,21 21.25,19.6568542 21.25,18 C21.25,16.3431458 19.9068542,15 18.25,15 C16.5931458,15 15.25,16.3431458 15.25,18 C15.25,19.6568542 16.5931458,21 18.25,21 Z" id="Combined-Shape" fill="#1D1E1F"></path>
            </g>
        </g>
    </g>
</svg>