<?xml version="1.0" encoding="UTF-8"?>
<svg width="266px" height="218px" viewBox="0 0 266 218" version="1.1" xmlns="http://www.w3.org/2000/svg" xmlns:xlink="http://www.w3.org/1999/xlink">
    <!-- Generator: sketchtool 52.6 (67491) - http://www.bohemiancoding.com/sketch -->
    <title>9D799D81-441E-4AF4-8B4D-C1C2D3C0D2D4</title>
    <desc>Created with sketchtool.</desc>
    <defs>
        <polygon id="path-1" points="1.39009912 -0.000404343389 970.164522 -0.000404343389 970.164522 763.369315 1.39009912 763.369315"></polygon>
    </defs>
    <g id="Site" stroke="none" stroke-width="1" fill="none" fill-rule="evenodd">
        <g id="Home-V2" transform="translate(-1174.000000, 0.000000)">
            <g id="Pngme-Graphic03-Black" transform="translate(1375.286502, -327.705045) rotate(-52.000000) translate(-1375.286502, 327.705045) translate(890.132855, -709.389905)">
                <mask id="mask-2" fill="white">
                    <use xlink:href="#path-1"></use>
                </mask>
                <g id="Clip-2"></g>
                <path d="M788.916766,119.459711 L540.77569,119.459711 L540.77569,208.790461 L788.916766,208.790461 C842.87674,208.790461 886.779292,252.68818 886.779292,306.644796 C886.779292,360.614461 842.87674,404.518704 788.916766,404.518704 L194.513313,404.212077 C91.2958894,404.212077 7.31804284,488.194246 7.31804284,591.411297 C7.31804284,694.626174 91.2958894,778.594208 194.513313,778.594208 L442.646778,778.594208 L442.646778,689.277594 L194.513313,689.277594 C140.545728,689.277594 96.6453509,645.374438 96.6453509,591.411297 C96.6453509,537.448157 140.545728,493.542826 194.513313,493.542826 L788.916766,493.841842 C892.126579,493.841842 976.092466,409.866197 976.092466,306.644796 C976.092466,203.42992 892.126579,119.459711 788.916766,119.459711 Z" id="Fill-1" fill="#E60C66" mask="url(#mask-2)"></path>
            </g>
        </g>
    </g>
</svg>