<?xml version="1.0" encoding="UTF-8"?>
<svg width="62px" height="61px" viewBox="0 0 62 61" version="1.1" xmlns="http://www.w3.org/2000/svg" xmlns:xlink="http://www.w3.org/1999/xlink">
    <!-- Generator: sketchtool 52.6 (67491) - http://www.bohemiancoding.com/sketch -->
    <title>4666DF50-1928-4491-B6ED-ADE4F89860E4</title>
    <desc>Created with sketchtool.</desc>
    <defs>
        <polygon id="path-1" points="0.00410774411 0 61 0 61 61 0.00410774411 61"></polygon>
    </defs>
    <g id="Site" stroke="none" stroke-width="1" fill="none" fill-rule="evenodd">
        <g id="Home-V2" transform="translate(-182.000000, -13.000000)">
            <g id="Pngme-Graphic04-Color-CMYK" transform="translate(182.824318, 13.000000)">
                <g id="Group-3">
                    <mask id="mask-2" fill="white">
                        <use xlink:href="#path-1"></use>
                    </mask>
                    <g id="Clip-2"></g>
                    <path d="M30.5,61 C47.3446947,61 61,47.3446947 61,30.5 C61,13.6553737 47.3446947,0 30.5,0 C13.6553737,0 0,13.6553737 0,30.5 C0,47.3446947 13.6553737,61 30.5,61" id="Fill-1" fill="#060403" mask="url(#mask-2)"></path>
                </g>
                <path d="M18.0625302,19 C16.903475,19 15.965886,19.3542808 15.2500281,20.0628423 L15.2500281,19.2748951 L13,19.2748951 L13,32.8167366 L15.2500281,32.8167366 L15.2500281,27.6308236 C15.965886,28.3394564 16.903475,28.6936659 18.0625302,28.6936659 C19.1874781,28.6936659 20.1648038,28.2356498 20.994375,27.319404 C21.82388,26.4031581 22.2386656,25.2486841 22.2386656,23.8560531 C22.2386656,22.4633509 21.8210985,21.3058865 20.9858316,20.3835177 C20.1505648,19.46122 19.1761531,19 18.0625302,19 Z M17.670527,26.5864215 C17.0341427,26.5864215 16.4716688,26.332957 15.9829728,25.8259567 C15.4942768,25.3189564 15.2500281,24.662227 15.2500281,23.8560531 C15.2500281,23.0497368 15.4942768,22.390017 15.9829728,21.8769649 C16.4716688,21.3639128 17.0341427,21.1073156 17.670527,21.1073156 C18.3636687,21.1073156 18.934686,21.3577186 19.3835128,21.8585959 C19.8324058,22.3594731 20.056786,23.0253159 20.056786,23.8560531 C20.056786,24.686719 19.8324058,25.3495003 19.3835128,25.8442546 C18.934686,26.3390088 18.3636687,26.5864215 17.670527,26.5864215 Z M28.8692749,19 C27.7670432,19 26.875019,19.3665268 26.1932024,20.0995092 L26.1932024,19.2748951 L23.9431742,19.2748951 L23.9431742,28.418842 L26.1932024,28.418842 L26.1932024,24.3691052 C26.1932024,22.2678414 26.897669,21.2172451 28.3068009,21.2172451 C28.8295381,21.2172451 29.2471715,21.4127546 29.559635,21.8036311 C29.8720984,22.1945788 30.0283963,22.7137539 30.0283963,23.3612277 L30.0283963,28.418842 L32.2784245,28.418842 L32.2784245,22.8481756 C32.2784245,21.7119994 31.9658948,20.7866402 31.3409017,20.0720269 C30.7159086,19.3573423 29.892033,19 28.8692749,19 Z M43,19.2748951 L40.7499056,19.2748951 L40.7499056,20.0628423 C40.0339816,19.3542808 39.096525,19 37.9374036,19 C36.8238469,19 35.849369,19.46122 35.0141684,20.3835177 C34.1789015,21.3058865 33.7613344,22.4633509 33.7613344,23.8560531 C33.7613344,25.2486841 34.1760537,26.4031581 35.005625,27.319404 C35.83513,28.2356498 36.8124557,28.6936659 37.9374036,28.6936659 C39.096525,28.6936659 40.0339816,28.3394564 40.7499056,27.6308236 L40.7499056,28.2722455 C40.7499056,29.0418949 40.5141341,29.6282808 40.042525,30.0314034 C39.5709158,30.4345971 38.9602279,30.6360872 38.2101965,30.6360872 C37.6760681,30.6360872 37.2442619,30.5353421 36.9147779,30.3337809 C36.5850952,30.1322196 36.2442862,29.7932464 35.8919535,29.3167188 L34.0681022,30.9842449 C34.852241,32.3281054 36.2329612,33 38.2101965,33 C39.6192622,33 40.7698402,32.6152465 41.6619306,31.845526 C42.5538886,31.0758766 43,30.0069825 43,28.6387011 L43,19.2748951 Z M38.3295392,26.5864215 C37.6362651,26.5864215 37.0652478,26.3390088 36.616421,25.8442546 C36.1675942,25.3495003 35.9431477,24.686719 35.9431477,23.8560531 C35.9431477,23.0253159 36.1675942,22.3594731 36.616421,21.8585959 C37.0652478,21.3577186 37.6362651,21.1073156 38.3295392,21.1073156 C38.9658573,21.1073156 39.5283974,21.3639128 40.0170272,21.8769649 C40.505657,22.390017 40.7499056,23.0497368 40.7499056,23.8560531 C40.7499056,24.662227 40.505657,25.3189564 40.0170272,25.8259567 C39.5283974,26.332957 38.9658573,26.5864215 38.3295392,26.5864215 Z" id="Fill-4" fill="#FFFFFE"></path>
                <path d="M34.0387691,36 C32.6773068,36 31.609233,36.4650283 30.8344793,37.395151 C30.1773137,36.4650283 29.214857,36 27.9471778,36 C26.8556411,36 25.9812215,36.3176206 25.323919,36.9527958 L25.323919,36.2552863 L23,36.2552863 L23,44.7447137 L25.323919,44.7447137 L25.323919,40.6615866 C25.323919,39.7883117 25.5000616,39.1361483 25.8520731,38.7050965 C26.2042214,38.2741107 26.697147,38.0586179 27.3309866,38.0586179 C27.8239806,38.0586179 28.2348203,38.2258562 28.5634373,38.5605312 C28.8920544,38.8950739 29.0563629,39.3402716 29.0563629,39.895992 L29.0563629,44.7447137 L31.3803503,44.7447137 L31.3803503,40.6615866 C31.3803503,39.7996151 31.5622389,39.1502942 31.9260844,38.7136236 C32.2899984,38.2769531 32.7888068,38.0586179 33.422578,38.0586179 C33.9155036,38.0586179 34.3263433,38.2258562 34.6549603,38.5605312 C34.9836458,38.8950739 35.1479543,39.3402716 35.1479543,39.895992 L35.1479543,44.7447137 L37.4542932,44.7447137 L37.4542932,39.4366485 C37.4542932,38.4272693 37.1197934,37.6021167 36.4507936,36.9612568 C35.7817939,36.320463 34.9777629,36 34.0387691,36 Z M48,40.3383473 C47.9530058,39.067997 47.4982502,38.0273516 46.6355963,37.2164771 C45.7728055,36.4054703 44.7429016,36 43.5457478,36 C42.2663713,36 41.1894733,36.4225247 40.3151221,37.2675079 C39.4407025,38.112425 39.0033901,39.1928639 39.0033901,40.508428 C39.0033901,41.8241904 39.4376927,42.9015887 40.3062979,43.7410193 C41.1747663,44.5802516 42.2429085,45 43.5105193,45 C44.4964388,45 45.3590928,44.7787563 46.0986179,44.3364671 C46.8380747,43.8941118 47.3955061,43.2419484 47.7710489,42.3799769 L45.6935927,41.9545438 C45.2358956,42.7031501 44.5081361,43.0774864 43.5105193,43.0774864 C42.9705996,43.0774864 42.4981955,42.8988124 42.0932386,42.5415966 C41.6883501,42.1843147 41.4271119,41.7050744 41.3097975,41.1039419 L48,41.1039419 L48,40.3383473 Z M43.5457478,37.9565562 C44.0386734,37.9565562 44.4729076,38.0869757 44.8485872,38.3478807 C45.22413,38.6087196 45.48229,38.999978 45.623204,39.521788 L41.3801861,39.521788 C41.5093345,39.0227171 41.7822016,38.6370774 42.1988557,38.3648689 C42.6155783,38.0925944 43.0644511,37.9565562 43.5457478,37.9565562 Z" id="Fill-5" fill="#FFFFFE"></path>
                <path d="M14.9999658,45 C16.1045777,45 17,44.1045093 17,42.9999658 C17,41.8954223 16.1045777,41 14.9999658,41 C13.8953538,41 13,41.8954223 13,42.9999658 C13,44.1045093 13.8953538,45 14.9999658,45" id="Fill-6" fill="#D92265"></path>
            </g>
        </g>
    </g>
</svg>