<?xml version="1.0" encoding="UTF-8"?>
<svg width="21px" height="25px" viewBox="0 0 21 25" version="1.1" xmlns="http://www.w3.org/2000/svg" xmlns:xlink="http://www.w3.org/1999/xlink">
    <!-- Generator: sketchtool 52.6 (67491) - http://www.bohemiancoding.com/sketch -->
    <title>28D61934-A785-459A-BD7B-86370D8E7AD9</title>
    <desc>Created with sketchtool.</desc>
    <g id="Site" stroke="none" stroke-width="1" fill="none" fill-rule="evenodd">
        <g id="Home-V2" transform="translate(-938.000000, -1664.000000)">
            <g id="Rouble" transform="translate(930.000000, 1659.000000)">
                <rect id="bound" x="0" y="0" width="36" height="36"></rect>
                <path d="M8.2236068,24.0527864 L8.7236068,23.0527864 C8.89299881,22.7140024 9.23926193,22.5 9.61803399,22.5 L23.881966,22.5 C24.4342508,22.5 24.881966,22.9477153 24.881966,23.5 C24.881966,23.6552451 24.8458209,23.8083582 24.7763932,23.9472136 L24.2763932,24.9472136 C24.1070012,25.2859976 23.7607381,25.5 23.381966,25.5 L9.11803399,25.5 C8.56574924,25.5 8.11803399,25.0522847 8.11803399,24.5 C8.11803399,24.3447549 8.15417908,24.1916418 8.2236068,24.0527864 Z" id="Path" fill="#FF0000" opacity="0.3"></path>
                <path d="M12,5.574 L19.6605,5.574 C21.063507,5.574 22.3284944,5.70049874 23.4555,5.9535 C24.5825056,6.20650126 25.548496,6.62049713 26.3535,7.1955 C27.158504,7.77050287 27.7794978,8.50649552 28.2165,9.4035 C28.6535022,10.3005045 28.872,11.3814937 28.872,12.6465 C28.872,14.0035068 28.6190025,15.1419954 28.113,16.062 C27.6069975,16.9820046 26.9227543,17.7237472 26.06025,18.28725 C25.1977457,18.8507528 24.1915058,19.2589987 23.0415,19.512 C21.8914943,19.7650013 20.6725064,19.8915 19.3845,19.8915 L16.038,19.8915 L16.038,30 L12,30 L12,5.574 Z M19.074,16.2345 C19.7870036,16.2345 20.4654968,16.1827505 21.1095,16.07925 C21.7535032,15.9757495 22.3284975,15.7917513 22.8345,15.52725 C23.3405025,15.2627487 23.7429985,14.9005023 24.042,14.4405 C24.3410015,13.9804977 24.4905,13.3825037 24.4905,12.6465 C24.4905,11.9334964 24.3410015,11.3527522 24.042,10.90425 C23.7429985,10.4557478 23.3462525,10.1050013 22.85175,9.852 C22.3572475,9.59899874 21.7937532,9.4322504 21.16125,9.35175 C20.5287468,9.2712496 19.8790033,9.231 19.212,9.231 L16.038,9.231 L16.038,16.2345 L19.074,16.2345 Z" id="Combined-Shape" fill="#241F20"></path>
            </g>
        </g>
    </g>
</svg>