<?xml version="1.0" encoding="UTF-8"?>
<svg width="28px" height="28px" viewBox="0 0 28 28" version="1.1" xmlns="http://www.w3.org/2000/svg" xmlns:xlink="http://www.w3.org/1999/xlink">
    <!-- Generator: sketchtool 52.6 (67491) - http://www.bohemiancoding.com/sketch -->
    <title>0CB022F5-9D68-4142-8DFC-065E69DEB77E</title>
    <desc>Created with sketchtool.</desc>
    <g id="Site" stroke="none" stroke-width="1" fill="none" fill-rule="evenodd">
        <g id="Home-V2" transform="translate(-491.000000, -2210.000000)">
            <g id="Group-6" transform="translate(156.000000, 2000.000000)">
                <g id="Smile-Copy-3" transform="translate(333.000000, 208.000000)">
                    <rect id="bound" x="0" y="0" width="32" height="32"></rect>
                    <rect id="Combined-Shape" fill="#FF0000" opacity="0.3" x="2.66666667" y="2.66666667" width="26.6666667" height="26.6666667" rx="13.3333333"></rect>
                    <path d="M8.22393286,19.4062675 C7.81546291,18.7935626 7.98102807,17.9657368 8.593733,17.5572668 C9.20643792,17.1487969 10.0342637,17.314362 10.4427337,17.927067 C11.9854472,20.2411372 13.805775,21.3333339 16,21.3333339 C18.194225,21.3333339 20.0145528,20.2411372 21.5572663,17.927067 C21.9657363,17.314362 22.7935621,17.1487969 23.406267,17.5572668 C24.0189719,17.9657368 24.1845371,18.7935626 23.7760671,19.4062675 C21.763225,22.4255307 19.1391084,24.0000006 16,24.0000006 C12.8608916,24.0000006 10.236775,22.4255307 8.22393286,19.4062675 Z" id="Path-56" fill="#3D42DF"></path>
                </g>
            </g>
        </g>
    </g>
</svg>